<?xml version="1.0" standalone="no"?>
<!DOCTYPE svg PUBLIC "-//W3C//DTD SVG 20010904//EN"
 "http://www.w3.org/TR/2001/REC-SVG-20010904/DTD/svg10.dtd">
<svg version="1.0" xmlns="http://www.w3.org/2000/svg"
 width="272.000000pt" height="253.000000pt" viewBox="0 0 272.000000 253.000000"
 preserveAspectRatio="xMidYMid meet">

<g transform="translate(0.000000,253.000000) scale(0.100000,-0.100000)"
fill="#000000" stroke="none">
<path d="M288 1480 c-1 -429 -3 -815 -3 -857 l0 -78 210 -3 c152 -2 211 -6
217 -15 4 -6 8 -102 8 -212 l0 -200 213 213 212 212 643 0 642 0 0 860 0 860
-1070 0 -1070 0 -2 -780z m962 22 l0 -217 -105 -158 -105 -157 -105 0 c-58 0
-105 2 -105 5 0 3 45 73 100 155 55 82 100 152 100 155 0 3 -47 5 -105 5
l-105 0 0 215 0 215 215 0 215 0 0 -218z m650 6 l0 -212 -107 -163 -108 -163
-108 0 -107 0 105 158 105 157 -105 3 -105 3 0 214 0 215 215 0 215 0 0 -212z"/>
</g>
</svg>
